<?xml version="1.0" encoding="UTF-8"?>
<!DOCTYPE svg PUBLIC "-//W3C//DTD SVG 1.1//EN" "http://www.w3.org/Graphics/SVG/1.1/DTD/svg11.dtd">
<!-- Creator: CorelDRAW -->
<svg xmlns="http://www.w3.org/2000/svg" xml:space="preserve" width="177.996mm" height="17.6356mm" version="1.1" style="shape-rendering:geometricPrecision; text-rendering:geometricPrecision; image-rendering:optimizeQuality; fill-rule:evenodd; clip-rule:evenodd"
viewBox="0 0 17799.6 1763.56"
 xmlns:xlink="http://www.w3.org/1999/xlink"
 xmlns:xodm="http://www.corel.com/coreldraw/odm/2003">
 <defs>
  <style type="text/css">
   <![CDATA[
    .str0 {stroke:#D2D5D6;stroke-width:141.11;stroke-linecap:round;stroke-miterlimit:22.9256}
    .fil1 {fill:none}
    .fil0 {fill:#D2D5D6;fill-rule:nonzero}
   ]]>
  </style>
 </defs>
 <g id="Слой_x0020_1">
  <metadata id="CorelCorpID_0Corel-Layer"/>
  <g id="_2788091233600">
   <g>
    <g>
     <path class="fil0" d="M16818.47 12.2c37.01,1.32 70.32,25.31 86.5,62.18l252.76 661.62c370.68,0.78 626.27,46.12 626.27,146.3 0,100.18 -255.59,145.52 -626.27,146.3l-252.76 661.63c-16.18,36.92 -49.49,60.85 -86.5,62.18l-87.7 3.18c-13.26,0.49 -26.01,-5.65 -34.76,-16.77 -8.75,-11.13 -12.57,-25.92 -10.4,-40.41 0,0 76.27,-517.43 100.84,-675.58 -279.79,-6.31 -435.38,-13.71 -435.38,-13.71l-82.44 175.05c-8.12,20.62 -28,34.15 -50.15,34.15l-32.29 0c-14.83,0 -29.02,-6.08 -39.21,-16.9 -10.19,-10.76 -15.48,-25.25 -14.64,-40.05l12.51 -221.16c-49.25,-7.09 -85.45,-30.31 -85.45,-57.91 0,-27.6 36.2,-50.75 85.45,-57.91l-12.51 -221.16c-0.84,-14.79 4.45,-29.29 14.64,-40.04 10.19,-10.83 24.38,-16.9 39.21,-16.9l32.29 0c22.15,0 42.03,13.53 50.15,34.15l82.44 175.1c0,0 155.59,-7.45 435.38,-13.77 -24.57,-158.14 -100.84,-675.57 -100.84,-675.57 -2.17,-14.5 1.65,-29.35 10.4,-40.41 8.75,-11.13 21.5,-17.2 34.76,-16.78l87.7 3.19z"/>
    </g>
   </g>
   <line class="fil1 str0" x1="16059.4" y1="883.45" x2="71.89" y2= "883.45" />
  </g>
 </g>
</svg>
